<?xml version="1.0" encoding="UTF-8"?>
<svg version="1.1" viewBox="0 0 916 880" width="229" height="220" xmlns="http://www.w3.org/2000/svg">
<path transform="translate(0)" d="m0 0h916v880h-916z" fill="#FFCF0D"/>
<path transform="translate(458,40)" d="m0 0 3 3 26 60 33 78 12 28 8 19 20 47 8 19 8 16 4 5 7 2 30 3 237 21 22 3 1 2-7 8-30 26-10 9-11 9-13 12-11 9-13 12-11 9-13 12-11 9-13 12-11 9-13 12-11 9-12 11-10 8-11 10-8 7-3 5v13l6 28 16 70 12 53 10 42 10 45 9 39-1 4h-5l-17-10-30-18-17-10-13-8-17-10-35-21-22-13-20-12-22-13-45-27-14-7-8 1-17 9-18 11-40 24-22 13-125 75-22 13-7 4h-2l-1-4 9-39 11-49 10-43 20-88 11-48 3-16-1-8-9-10-10-9-11-9-12-11-11-9-12-11-8-7-14-12-10-9-8-7-14-12-10-9-8-7-14-12-10-9-11-9-13-12-11-9-13-12-8-7-4-4v-4l36-4 135-12 103-9 19-3 6-4 8-15 14-34 13-30 11-26 13-30 10-24 12-28 8-19 10-23 12-28 7-14z" fill="#FEFEFE"/>
<path transform="translate(462)" d="m0 0h454v335l-3-4-5-9-7-8-11-6-12-3-42-4-79-7-53-5-58-5-38-4-4-2-8-17-10-24-33-77-16-38-33-77-7-17-7-11-9-8-10-5-9-2z" fill="#FEFEFE"/>
<path transform="translate(0)" d="m0 0h452l-1 2-10 3-10 7-3 1-2 4-6 9-11 25-23 54-48 112-13 31-13 30-3 2-43 4-101 9-31 3-81 7-18 2-13 4-11 8-4 5-5 9h-2z" fill="#FEFEFE"/>
<path transform="translate(915,359)" d="m0 0h1v521h-196l1-2 8-2 11-6 5-5 7-9 4-9v-19l-12-53-15-65-7-31-9-39-7-31-8-36-1-5v-11l9-8 11-9 12-11 8-7 10-9 11-9 13-12 11-9 11-10 8-7 14-12 10-9 8-7 14-12 13-11 12-11 11-9 13-12 11-11 4-5z" fill="#FEFEFE"/>
<path transform="translate(0,358)" d="m0 0 2 1 4 9 7 9 8 7 8 8 11 9 13 12 8 7 11 10 11 9 12 11 10 9 11 9 10 9 11 9 11 10 11 9 11 10 11 9 12 11 11 9 15 14v9l-9 40-9 39-8 34-8 36-22 96-3 15v18l4 10 7 10 10 8 10 4 4 1v2h-195z" fill="#FEFEFE"/>
<path transform="translate(454,733)" d="m0 0h7l13 8 17 10 100 60 17 10 13 8 44 26 18 11 18 10 8 3v1h-502l1-2 11-4 10-6 11-6 13-8 20-12 22-13 75-45 27-16 40-24z" fill="#FEFEFE"/>
</svg>
