<?xml version="1.0" encoding="UTF-8"?>
<svg version="1.1" viewBox="0 0 916 880" width="229" height="220" xmlns="http://www.w3.org/2000/svg">
<path transform="translate(0)" d="m0 0h916v880h-916z" fill="#FECF08"/>
<path transform="translate(456,32)" d="m0 0h7l8 4 7 8 6 12 22 52 9 21 11 26 4 10 6 13 10 24 13 30 11 26 10 24 8 18 1 1 221 20 52 5 12 3 6 5 5 10v12l-4 7-11 10-11 9-7 7-10 8-11 10-8 7-14 12-10 9-11 9-12 11-8 7-14 12-10 9-11 9-12 11-8 7-13 11-10 9-11 9-10 9 1 8 20 87 19 83 14 61 7 31 1 11-3 8-5 6-6 4-4 1h-9l-16-8-22-13-85-51-22-13-45-27-17-10-35-21-7-3-1-22v-248l1-388z" fill="#FEFEFD"/>
<path transform="translate(459)" d="m0 0h457v338l-2-3-5-12-8-10-8-7-13-6-13-3-79-7-112-10-65-6-4-5-8-17-18-43-13-30-15-35-11-26-15-35-11-26-9-21-8-15-9-8-10-6-8-3-13-3z" fill="#FEFEFD"/>
<path transform="translate(0)" d="m0 0h453l-3 2-11 3-11 6-10 9-6 10-12 26-12 29-17 40-57 133-7 15-8 2-41 3-31 3-58 5-31 3-90 8-14 3-12 6-9 8-8 12-4 9h-1z" fill="#FEFEFD"/>
<path transform="translate(915,362)" d="m0 0h1v518h-204l3-2 12-3 13-7 5-4 10-14 4-10 1-5v-15l-6-29-10-43-12-53-10-44-8-35-10-43-2-13 5-5 10-9 11-9 10-9 8-7 10-9 11-9 13-12 28-24 12-11 11-9 13-12 11-9 11-10 11-9 12-11 8-7 9-10 5-8z" fill="#FEFEFD"/>
<path transform="translate(0,361)" d="m0 0 3 4 6 12 7 9 10 10 11 9 15 14 10 9 11 9 15 14 8 7 11 9 10 9 11 9 10 9 11 9 12 11 7 5v2l4 2 13 12 10 8 12 11 7 6-1 7-15 66-9 39-13 57-17 74-3 16v16l4 12 6 10 9 10 14 8 13 4v1h-202z" fill="#FEFEFD"/>
<path transform="translate(455,738)" d="m0 0h5l16 10 29 17 13 8 40 24 22 13 20 12 27 16 50 30 16 8 10 3v1h-490l3-2 12-4 21-12 28-17 14-8 28-17 26-15 13-8 15-9 32-19 46-28z" fill="#FEFEFD"/>
<path transform="translate(214,843)" d="m0 0h3v2l-8 2h-11l1-2z" fill="#FEFEFD"/>
</svg>
