<?xml version="1.0" encoding="UTF-8"?>
<svg version="1.1" viewBox="0 0 916 880" width="229" height="220" xmlns="http://www.w3.org/2000/svg">
<path transform="translate(0)" d="m0 0h916v880h-916z" fill="#FECD08"/>
<path transform="translate(0)" d="m0 0h916v336l-4-4-4-6-7-4-20-3-83-7-64-6-81-7-43-4-13-3-8-16-12-28-11-26-13-30-12-28-11-26-10-23-11-26-15-35-11-26-2-9h-2l-6-8-9-5-10-1-14 7-2 4-15 36-13 30-90 210-4 2-29 3-34 3-36 3-53 5-146 13-7 3-6 5-4 8h-1z" fill="#FDFDFD"/>
<path transform="translate(0,351)" d="m0 0 3 1 7 8 8 8 8 7 10 9 10 8 13 12 13 11 10 9 8 7 14 12 10 9 8 7 28 24 11 10 7 5v2l4 2 13 12 10 8 11 10 2 1v2l4 2 10 9 8 7 2 2v9l-8 36-10 43-7 31-10 43-7 31-7 30-9 40-2 11 12-2 15 1 6-2 8 1h34l13 2v2l5 2 9-5 6-2 4-4 21-12 59-35 45-27 28-17 14-9 3-2h6l13 8 23 13 13 8 15 9 24 14 13 8 15 9 19 11 17 10 22 13 7 4 6 1 4-1h5l3-1 18 2 17-1 6-1 15 1 5-1 7 1 8 1 5 4 3 4h2l-10-46-12-52-11-48-10-45-7-30-7-29-5-26 1-5 7-7 9-7h2l2-4 5-4h2l2-4 5-4h2l1-3 11-9h2l1-3 7-5 5-5 4-2v-2l5-4h2l1-3 5-3 5-5 10-9 9-7 5-5 8-7 9-8h2l1-3 6-4 5-5 9-8 8-7 3-1 1-3 6-4 5-5h2v-2l7-5 5-5h2l2-4 5-3 5-5 10-9 5-5 11-10 4-5h2v528h-916z" fill="#FDFDFD"/>
<path transform="translate(0,351)" d="m0 0 3 1 7 8 8 8 8 7 10 9 10 8 13 12 13 11 10 9 8 7 14 12 10 9 8 7 28 24 11 10 7 5v2l4 2 13 12 10 8 11 10 2 1v2l4 2 10 9 8 7 2 2v9l-8 36-10 43-7 31-10 43-7 31-7 30-9 40-2 11 12-2 15 1 6-2 8 1h34l13 2v2l5 2 9-5 2 1-10 6-19 11-23 13-17 9-5 1h-15l-17-7-5-5 1-13 5-25 11-47 10-45 7-29 6-26 8-36 11-49 6-24v-7l-12-11-11-9-7-7-11-9-11-10-11-9-12-11-11-9-13-12-10-8-14-13-11-9-12-11-28-24-11-10-11-9-12-11-8-7-12-12v-2h-2z" fill="#FCEAAF"/>
<path transform="translate(730,764)" d="m0 0 2 3 12 53 5 22 1 7v8l-3 5-5 5-13 3-19-1-16-8-22-12-50-30-17-10-20-12-1-2 6 2 17 10 22 13 11 6 7 2 4-1h5l3-1 18 2 17-1 6-1 15 1 5-1 7 1 8 1 5 4 3 4h2l-10-46-5-22z" fill="#FEE05E"/>
<path transform="translate(203,826)" d="m0 0 10 1h34l13 2v2l5 2 9-5 2 1-10 6-19 11-10 3-4-3-14-2h-29l-16 1-6 1 1-11 2-7h9l4-1 15 1z" fill="#FEE05C"/>
<path transform="translate(652,836)" d="m0 0 4 1 14 7h24l26-1h21l5 6 2 1-1-12 2 4 1 7v8l-3 5-5 5-13 3-19-1-16-8-22-12-15-9z" fill="#FCEAAF"/>
<path transform="translate(131,431)" d="m0 0h9l9 4 6-3 4 1 4 5-1 10 8 7 6 3 1 4v4l4 2 1 4 2 1 1 8v3l-15-5v-2l-6-2-11-10-3-3v-2h-2l-7-8-6-7v-2h-2l-6-9 1-2z" fill="#FEC00C"/>
<path transform="translate(439,12)" d="m0 0v3l-6 13-11 26-102 238-4 2-29 3-34 3-36 3-53 5-146 13-7 3-6 5-4 8h-1v-7l11-9 4-2 24-3 36-3 20-2 24-2 6-1 29-2 14-2 38-3 22-2 46-4 24-2 21-2 1-5 114-266 3-6z" fill="#FDE58C"/>
<path transform="translate(0,351)" d="m0 0 3 1 7 8 8 8 8 7 10 9 10 8 13 12 13 11 10 9 8 7 14 12 10 9 8 7 28 24 11 10 7 5v2l4 2 13 12 10 8 11 10 2 1v2l4 2 10 9 8 7 2 2v9l-8 36-10 43-7 31-10 43-7 31-7 30-9 40-2 10-2 1 1-10 11-47 10-45 7-29 6-26 8-36 11-49 6-24v-7l-12-11-11-9-7-7-11-9-11-10-11-9-12-11-11-9-13-12-10-8-14-13-11-9-12-11-28-24-11-10-11-9-12-11-8-7-12-12v-2h-2z" fill="#FDE589"/>
<path transform="translate(575,240)" d="m0 0 3 4 10 24 9 20v2l23 3 36 3 28 3 58 5 73 7 45 4 24 2 14 2 10 4 5 6 3 4-1 3-7-10-7-4-20-3-83-7-64-6-81-7-43-4-13-3-8-16-12-28-2-4z" fill="#FDE68D"/>
<path transform="translate(228,299)" d="m0 0h12v1l-31 4-36 3-66 6-68 6-21 2-7 3-6 5-4 8h-1v-7l11-9 4-2 24-3 36-3 20-2 24-2 6-1 29-2 14-2 38-3z" fill="#FCE693"/>
<path transform="translate(228,299)" d="m0 0h12v1l-31 4-36 3h-7v-2l2-1 38-3z" fill="#FDE68D"/>
<path transform="translate(760,427)" d="m0 0h4v2l3 1-6 3-1-2-9 1-3 2-9 2-7 1-5-1-11 2-2-2 31-6 9-2z" fill="#FEC00C"/>
<path transform="translate(575,240)" d="m0 0 3 4 10 24 9 20v2l23 3 9 1v1h-19l-13-3-8-16-12-28-2-4z" fill="#FDE692"/>
<path transform="translate(584,795)" d="m0 0 6 2 17 10 22 13 5 3v2l3 1-2 1-18-11-29-17z" fill="#FDE586"/>
<path transform="translate(81,425)" d="m0 0 4 1 8 8 10 8 11 10 16 14h-3l-10-9-8-7-10-9-10-8-8-7z" fill="#FDE589"/>
<path transform="translate(258,296)" d="m0 0h14v2l-31 3h-9v-1l19-3z" fill="#FDE589"/>
<path transform="translate(629,294)" d="m0 0 27 2 5 1v2l-17-1-24-2v-1z" fill="#FDE68D"/>
<path transform="translate(812,439)" d="m0 0 1 2-1 4-10 8-2 2-5 1 2-4z" fill="#FEC00C"/>
<path transform="translate(228,299)" d="m0 0h12v1l-23 3h-13l2-2z" fill="#FCE79B"/>
<path transform="translate(298,293)" d="m0 0h7l-4 2-1 1-13 1h-15l2-2z" fill="#FCE694"/>
<path transform="translate(15,319)" d="m0 0h16v1l-13 1-7 3-6 5-4 8h-1v-7l11-9z" fill="#FDE484"/>
<path transform="translate(190,520)" d="m0 0 4 1 12 11 2 1v2l4 2 5 5-1 2-16-15-10-8z" fill="#FDE68E"/>
<path transform="translate(119,309)" d="m0 0 4 1-3 2-13 1h-14l2-2z" fill="#FCE799"/>
<path transform="translate(125,308)" d="m0 0h14v2l-18 1z" fill="#FDE58A"/>
<path transform="translate(81,312)" d="m0 0h12l1 2-16 1z" fill="#FDE589"/>
<path transform="translate(113,453)" d="m0 0 4 1 13 13-4-2-8-7z" fill="#FDE68F"/>
<path transform="translate(812,439)" d="m0 0 1 2-1 4-5 4h-3l2-4z" fill="#FEC40E"/>
<path transform="translate(622,818)" d="m0 0 5 1 7 4v2l3 1-2 1-13-8z" fill="#FDE68E"/>
<path transform="translate(653,296)" d="m0 0 8 1v2l-17-1v-1z" fill="#FDE37C"/>
<path transform="translate(119,309)" d="m0 0 4 1-3 2h-12l2-2z" fill="#FDE693"/>
</svg>
